<svg id="Layer_1" data-name="Layer 1" xmlns="http://www.w3.org/2000/svg" viewBox="0 0 1000 1000"><defs><style>.cls-1{fill:#fff;stroke:#fff;stroke-miterlimit:10;}</style></defs><title>dark</title><path class="cls-1" d="M491.62,33,433.87,139.86a16.36,16.36,0,0,0-.15,15.28L786.15,839.75a16.38,16.38,0,0,1-14.55,23.87H373.27a16.35,16.35,0,0,0-13.62,7.29l-53.21,79.81a16.38,16.38,0,0,0,13.62,25.46H975.6a16.38,16.38,0,0,0,14.59-23.83L520.61,33.29A16.38,16.38,0,0,0,491.62,33Z"/><path class="cls-1" d="M336.51,318.38,10.19,951.48a16.94,16.94,0,0,0,15.06,24.7H140a16.94,16.94,0,0,0,15.34-9.76l98.53-210.5a16.94,16.94,0,0,1,15.35-9.76H536.86a17,17,0,0,0,14.93-24.95l-42.2-78.68a16.93,16.93,0,0,0-14.93-8.93H348.17a16.94,16.94,0,0,1-15.08-24.66l87.78-171.45a16.94,16.94,0,0,0-.07-15.58L366.58,318.29A16.94,16.94,0,0,0,336.51,318.38Z"/></svg>