<svg id="Layer_1" data-name="Layer 1" xmlns="http://www.w3.org/2000/svg" xmlns:xlink="http://www.w3.org/1999/xlink" viewBox="0 0 1000 1000"><defs><style>.cls-1{fill:url(#linear-gradient);}.cls-2{fill:url(#linear-gradient-2);}</style><linearGradient id="linear-gradient" x1="359.18" y1="450.27" x2="839" y2="450.27" gradientUnits="userSpaceOnUse"><stop offset="0"/><stop offset="1" stop-color="#191919"/></linearGradient><linearGradient id="linear-gradient-2" x1="153.29" y1="549.55" x2="533.56" y2="549.55" gradientUnits="userSpaceOnUse"><stop offset="0"/><stop offset="1" stop-color="#141414"/></linearGradient></defs><title>Artboard 1</title><path class="cls-1" d="M490.2,124.52,449.94,199a11.4,11.4,0,0,0-.1,10.65L695.51,686.91a11.42,11.42,0,0,1-10.15,16.64H407.71a11.4,11.4,0,0,0-9.5,5.08l-37.09,55.63a11.42,11.42,0,0,0,9.5,17.75h457a11.42,11.42,0,0,0,10.17-16.61L510.41,124.75A11.42,11.42,0,0,0,490.2,124.52Z"/><path class="cls-2" d="M382.08,323.48,154.62,764.79A11.8,11.8,0,0,0,165.11,782h80a11.83,11.83,0,0,0,10.7-6.8L324.5,628.47a11.8,11.8,0,0,1,10.69-6.8H521.73a11.81,11.81,0,0,0,10.41-17.39l-29.41-54.84a11.79,11.79,0,0,0-10.41-6.23H390.21A11.8,11.8,0,0,1,379.7,526l61.19-119.51a11.83,11.83,0,0,0-.05-10.86L403,323.42A11.81,11.81,0,0,0,382.08,323.48Z"/></svg>